solid OpenSCAD_Model
  facet normal -0.747409 0 -0.664364
    outer loop
      vertex -30.7 -18.05 -1
      vertex -30.7 -15.1 -1
      vertex -28.7 -18.05 -3.25
    endloop
  endfacet
  facet normal -0.747409 0 -0.664364
    outer loop
      vertex -28.7 -18.05 -3.25
      vertex -30.7 -15.1 -1
      vertex -28.7 -15.1 -3.25
    endloop
  endfacet
  facet normal -1 0 0
    outer loop
      vertex -30.7 -18.05 -1
      vertex -30.7 -18.05 6
      vertex -30.7 -15.1 -1
    endloop
  endfacet
  facet normal -1 0 0
    outer loop
      vertex -30.7 -15.1 -1
      vertex -30.7 -18.05 6
      vertex -30.7 -15.1 6
    endloop
  endfacet
  facet normal 0 -1 0
    outer loop
      vertex -30.7 -18.05 6
      vertex -30.7 -18.05 -1
      vertex -28.7 -18.05 -3.25
    endloop
  endfacet
  facet normal 0 -1 0
    outer loop
      vertex -22.7 -18.05 -3.25
      vertex -30.7 -18.05 6
      vertex -28.7 -18.05 -3.25
    endloop
  endfacet
  facet normal 0 -1 0
    outer loop
      vertex -20.7 -18.05 -3.25
      vertex -30.7 -18.05 6
      vertex -22.7 -18.05 -3.25
    endloop
  endfacet
  facet normal 0 -1 0
    outer loop
      vertex -26.7 -18.05 7.55
      vertex -30.7 -18.05 6
      vertex -20.7 -18.05 -3.25
    endloop
  endfacet
  facet normal 0 -1 0
    outer loop
      vertex -20.7 -18.05 10.0322
      vertex -26.7 -18.05 7.55
      vertex -20.7 -18.05 -3.25
    endloop
  endfacet
  facet normal 0 -1 0
    outer loop
      vertex -26.7 -18.05 10.0322
      vertex -26.7 -18.05 7.55
      vertex -20.7 -18.05 10.0322
    endloop
  endfacet
  facet normal 0 0 -1
    outer loop
      vertex -28.7 -18.05 -3.25
      vertex -28.7 -15.1 -3.25
      vertex -22.7 -18.05 -3.25
    endloop
  endfacet
  facet normal 0 0 -1
    outer loop
      vertex -22.7 -18.05 -3.25
      vertex -28.7 -15.1 -3.25
      vertex -22.7 -15.1 -3.25
    endloop
  endfacet
  facet normal 0 1 0
    outer loop
      vertex -26.7 -15.1 7.55
      vertex -26.7 -15.1 8.04289
      vertex -20.7 -15.1 8.04289
    endloop
  endfacet
  facet normal 0 1 0
    outer loop
      vertex -26.7 -15.1 7.55
      vertex -20.7 -15.1 8.04289
      vertex -30.7 -15.1 6
    endloop
  endfacet
  facet normal 0 1 0
    outer loop
      vertex -23.3094 -15.1 -0.249864
      vertex -20.7 -15.1 -3.25
      vertex -23.4974 -15.1 -0.828465
    endloop
  endfacet
  facet normal 0 1 0
    outer loop
      vertex -26.4653 -15.1 -0.635598
      vertex -28.7 -15.1 -3.25
      vertex -30.7 -15.1 6
    endloop
  endfacet
  facet normal 0 1 0
    outer loop
      vertex -28.7 -15.1 -3.25
      vertex -30.7 -15.1 -1
      vertex -30.7 -15.1 6
    endloop
  endfacet
  facet normal 0 1 0
    outer loop
      vertex -26.2773 -15.1 -1.2142
      vertex -28.7 -15.1 -3.25
      vertex -26.4653 -15.1 -0.635598
    endloop
  endfacet
  facet normal 0 1 0
    outer loop
      vertex -26.5906 -15.1 -0.249864
      vertex -26.4653 -15.1 -0.635598
      vertex -30.7 -15.1 6
    endloop
  endfacet
  facet normal 0 1 0
    outer loop
      vertex -25.9492 -15.1 -1.4526
      vertex -28.7 -15.1 -3.25
      vertex -26.2773 -15.1 -1.2142
    endloop
  endfacet
  facet normal 0 1 0
    outer loop
      vertex -24.1149 -15.1 -1.57179
      vertex -22.7 -15.1 -3.25
      vertex -24.443 -15.1 -1.81019
    endloop
  endfacet
  facet normal 0 1 0
    outer loop
      vertex -25.457 -15.1 -1.81019
      vertex -28.7 -15.1 -3.25
      vertex -25.9492 -15.1 -1.4526
    endloop
  endfacet
  facet normal 0 1 0
    outer loop
      vertex -26.4026 -15.1 0.328737
      vertex -30.7 -15.1 6
      vertex -26.2773 -15.1 0.714471
    endloop
  endfacet
  facet normal 0 1 0
    outer loop
      vertex -22.7 -15.1 -3.25
      vertex -28.7 -15.1 -3.25
      vertex -25.457 -15.1 -1.81019
    endloop
  endfacet
  facet normal 0 1 0
    outer loop
      vertex -20.7 -15.1 -3.25
      vertex -22.7 -15.1 -3.25
      vertex -24.1149 -15.1 -1.57179
    endloop
  endfacet
  facet normal 0 1 0
    outer loop
      vertex -20.7 -15.1 -3.25
      vertex -24.1149 -15.1 -1.57179
      vertex -23.6227 -15.1 -1.2142
    endloop
  endfacet
  facet normal 0 1 0
    outer loop
      vertex -20.7 -15.1 -3.25
      vertex -23.6227 -15.1 -1.2142
      vertex -23.4974 -15.1 -0.828465
    endloop
  endfacet
  facet normal 0 1 0
    outer loop
      vertex -20.7 -15.1 8.04289
      vertex -20.7 -15.1 -3.25
      vertex -23.3094 -15.1 -0.249864
    endloop
  endfacet
  facet normal 0 1 0
    outer loop
      vertex -20.7 -15.1 8.04289
      vertex -23.3094 -15.1 -0.249864
      vertex -23.4347 -15.1 0.13587
    endloop
  endfacet
  facet normal 0 1 0
    outer loop
      vertex -20.7 -15.1 8.04289
      vertex -23.4347 -15.1 0.13587
      vertex -23.6227 -15.1 0.714471
    endloop
  endfacet
  facet normal 0 1 0
    outer loop
      vertex -20.7 -15.1 8.04289
      vertex -23.6227 -15.1 0.714471
      vertex -30.7 -15.1 6
    endloop
  endfacet
  facet normal 0 1 0
    outer loop
      vertex -23.6227 -15.1 0.714471
      vertex -23.9508 -15.1 0.952868
      vertex -30.7 -15.1 6
    endloop
  endfacet
  facet normal 0 1 0
    outer loop
      vertex -23.9508 -15.1 0.952868
      vertex -24.443 -15.1 1.31046
      vertex -30.7 -15.1 6
    endloop
  endfacet
  facet normal 0 1 0
    outer loop
      vertex -25.457 -15.1 1.31046
      vertex -30.7 -15.1 6
      vertex -24.443 -15.1 1.31046
    endloop
  endfacet
  facet normal 0 1 0
    outer loop
      vertex -25.7851 -15.1 1.07207
      vertex -30.7 -15.1 6
      vertex -25.457 -15.1 1.31046
    endloop
  endfacet
  facet normal 0 1 0
    outer loop
      vertex -26.2773 -15.1 0.714471
      vertex -30.7 -15.1 6
      vertex -25.7851 -15.1 1.07207
    endloop
  endfacet
  facet normal 0 1 0
    outer loop
      vertex -26.4026 -15.1 0.328737
      vertex -26.5906 -15.1 -0.249864
      vertex -30.7 -15.1 6
    endloop
  endfacet
  facet normal 0 1 0
    outer loop
      vertex -24.443 -15.1 -1.81019
      vertex -22.7 -15.1 -3.25
      vertex -25.457 -15.1 -1.81019
    endloop
  endfacet
  facet normal -0.361321 0 0.932441
    outer loop
      vertex -30.7 -15.1 6
      vertex -30.7 -18.05 6
      vertex -26.7 -18.05 7.55
    endloop
  endfacet
  facet normal -0.361321 0 0.932441
    outer loop
      vertex -26.7 -15.1 7.55
      vertex -30.7 -15.1 6
      vertex -26.7 -18.05 7.55
    endloop
  endfacet
  facet normal -1 0 0
    outer loop
      vertex -26.7 -18.05 7.55
      vertex -26.7 -18.05 10.0322
      vertex -26.7 -15.1 7.55
    endloop
  endfacet
  facet normal -1 0 0
    outer loop
      vertex -26.7 -15.1 7.55
      vertex -26.7 -18.05 10.0322
      vertex -26.7 -16.3322 11.75
    endloop
  endfacet
  facet normal -1 0 0
    outer loop
      vertex -26.7 -14.4129 8.73
      vertex -26.7 -16.3322 11.75
      vertex -26.7 -9.36777 11.75
    endloop
  endfacet
  facet normal -1 0 0
    outer loop
      vertex -26.7 -12.5371 8.73
      vertex -26.7 -9.36777 11.75
      vertex -26.7 -7.6 9.98223
    endloop
  endfacet
  facet normal -1 0 0
    outer loop
      vertex -26.7 -7.6 9.98223
      vertex -26.7 -7.55 10.0322
      vertex -26.7 -7.55 -3.25
    endloop
  endfacet
  facet normal -1 0 0
    outer loop
      vertex -26.7 -11.85 5.55
      vertex -26.7 -10.6 2.55
      vertex -26.7 -11.85 2.55
    endloop
  endfacet
  facet normal -1 0 0
    outer loop
      vertex -26.7 -7.6 9.98223
      vertex -26.7 -7.55 -3.25
      vertex -26.7 -10.6 2.55
    endloop
  endfacet
  facet normal -1 0 0
    outer loop
      vertex -26.7 -11.85 5.55
      vertex -26.7 -7.6 9.98223
      vertex -26.7 -10.6 5.55
    endloop
  endfacet
  facet normal -1 0 0
    outer loop
      vertex -26.7 -10.6 5.55
      vertex -26.7 -10.6 2.55
      vertex -26.7 -11.85 5.55
    endloop
  endfacet
  facet normal -1 0 0
    outer loop
      vertex -26.7 -7.6 9.98223
      vertex -26.7 -10.6 2.55
      vertex -26.7 -10.6 5.55
    endloop
  endfacet
  facet normal -1 0 0
    outer loop
      vertex -26.7 -12.5371 8.73
      vertex -26.7 -7.6 9.98223
      vertex -26.7 -11.85 8.04289
    endloop
  endfacet
  facet normal -1 0 0
    outer loop
      vertex -26.7 -7.6 9.98223
      vertex -26.7 -11.85 5.55
      vertex -26.7 -11.85 8.04289
    endloop
  endfacet
  facet normal -1 0 0
    outer loop
      vertex -26.7 -14.4129 8.73
      vertex -26.7 -9.36777 11.75
      vertex -26.7 -12.5371 8.73
    endloop
  endfacet
  facet normal -1 0 0
    outer loop
      vertex -26.7 -15.1 8.04289
      vertex -26.7 -16.3322 11.75
      vertex -26.7 -14.4129 8.73
    endloop
  endfacet
  facet normal -1 0 0
    outer loop
      vertex -26.7 -15.1 7.55
      vertex -26.7 -16.3322 11.75
      vertex -26.7 -15.1 8.04289
    endloop
  endfacet
  facet normal -1 0 0
    outer loop
      vertex -26.7 -10.6 2.55
      vertex -26.7 -7.55 -3.25
      vertex -26.7 -10.6 -3.25
    endloop
  endfacet
  facet normal 0 -0.707107 0.707107
    outer loop
      vertex -20.7 -18.05 10.0322
      vertex -20.7 -16.3322 11.75
      vertex -26.7 -16.3322 11.75
    endloop
  endfacet
  facet normal 0 -0.707107 0.707107
    outer loop
      vertex -26.7 -18.05 10.0322
      vertex -20.7 -18.05 10.0322
      vertex -26.7 -16.3322 11.75
    endloop
  endfacet
  facet normal 1 0 0
    outer loop
      vertex -20.7 -18.05 10.0322
      vertex -20.7 -18.05 -3.25
      vertex -20.7 -15.1 -3.25
    endloop
  endfacet
  facet normal 1 0 0
    outer loop
      vertex -20.7 -14.4129 8.73
      vertex -20.7 -18.05 10.0322
      vertex -20.7 -15.1 8.04289
    endloop
  endfacet
  facet normal 1 0 0
    outer loop
      vertex -20.7 -15.1 8.04289
      vertex -20.7 -18.05 10.0322
      vertex -20.7 -15.1 -3.25
    endloop
  endfacet
  facet normal 1 0 0
    outer loop
      vertex -20.7 -12.5371 8.73
      vertex -20.7 -18.05 10.0322
      vertex -20.7 -14.4129 8.73
    endloop
  endfacet
  facet normal 1 0 0
    outer loop
      vertex -20.7 -7.55 3.75
      vertex -20.7 -12.5371 8.73
      vertex -20.7 -11.85 8.04289
    endloop
  endfacet
  facet normal 1 0 0
    outer loop
      vertex -20.7 -10.6 6.75
      vertex -20.7 -11.85 8.04289
      vertex -20.7 -11.85 6.75
    endloop
  endfacet
  facet normal 1 0 0
    outer loop
      vertex -20.7 -7.55 3.75
      vertex -20.7 -11.85 8.04289
      vertex -20.7 -10.6 6.75
    endloop
  endfacet
  facet normal 1 0 0
    outer loop
      vertex -20.7 -10.02 -3.25
      vertex -20.7 -10.6 6.75
      vertex -20.7 -10.6 -3.25
    endloop
  endfacet
  facet normal 1 0 0
    outer loop
      vertex -20.7 -10.02 3.75
      vertex -20.7 -10.6 6.75
      vertex -20.7 -10.02 -3.25
    endloop
  endfacet
  facet normal 1 0 0
    outer loop
      vertex -20.7 -7.55 3.75
      vertex -20.7 -10.6 6.75
      vertex -20.7 -10.02 3.75
    endloop
  endfacet
  facet normal 1 0 0
    outer loop
      vertex -20.7 -7.6 9.98223
      vertex -20.7 -12.5371 8.73
      vertex -20.7 -7.55 3.75
    endloop
  endfacet
  facet normal 1 0 0
    outer loop
      vertex -20.7 -7.55 10.0322
      vertex -20.7 -7.6 9.98223
      vertex -20.7 -7.55 3.75
    endloop
  endfacet
  facet normal 1 0 0
    outer loop
      vertex -20.7 -16.3322 11.75
      vertex -20.7 -18.05 10.0322
      vertex -20.7 -9.36777 11.75
    endloop
  endfacet
  facet normal 1 0 0
    outer loop
      vertex -20.7 -7.6 9.98223
      vertex -20.7 -18.05 10.0322
      vertex -20.7 -12.5371 8.73
    endloop
  endfacet
  facet normal 1 0 0
    outer loop
      vertex -20.7 -7.6 9.98223
      vertex -20.7 -9.36777 11.75
      vertex -20.7 -18.05 10.0322
    endloop
  endfacet
  facet normal 0 0 -1
    outer loop
      vertex -22.7 -18.05 -3.25
      vertex -22.7 -15.1 -3.25
      vertex -20.7 -18.05 -3.25
    endloop
  endfacet
  facet normal 0 0 -1
    outer loop
      vertex -20.7 -18.05 -3.25
      vertex -22.7 -15.1 -3.25
      vertex -20.7 -15.1 -3.25
    endloop
  endfacet
  facet normal -0.911645 0.28489 -0.296211
    outer loop
      vertex -26.2773 -15.1 -1.2142
      vertex -26.4653 -15.1 -0.635598
      vertex -26.1635 -14.65 -1.13154
    endloop
  endfacet
  facet normal -0.911645 0.284889 -0.296212
    outer loop
      vertex -26.5906 -15.1 -0.249864
      vertex -26.45 -14.65 -0.249864
      vertex -26.4653 -15.1 -0.635598
    endloop
  endfacet
  facet normal -0.911645 0.284889 -0.296212
    outer loop
      vertex -26.4653 -15.1 -0.635598
      vertex -26.45 -14.65 -0.249864
      vertex -26.1635 -14.65 -1.13154
    endloop
  endfacet
  facet normal -0.911645 0.284889 0.296211
    outer loop
      vertex -26.5906 -15.1 -0.249864
      vertex -26.4026 -15.1 0.328737
      vertex -26.45 -14.65 -0.249864
    endloop
  endfacet
  facet normal -0.911645 0.28489 0.296212
    outer loop
      vertex -26.45 -14.65 -0.249864
      vertex -26.4026 -15.1 0.328737
      vertex -26.1635 -14.65 0.631814
    endloop
  endfacet
  facet normal -0.911645 0.28489 0.296212
    outer loop
      vertex -26.1635 -14.65 0.631814
      vertex -26.4026 -15.1 0.328737
      vertex -26.2773 -15.1 0.714471
    endloop
  endfacet
  facet normal -0.563428 0.284889 0.775492
    outer loop
      vertex -26.1635 -14.65 0.631814
      vertex -26.2773 -15.1 0.714471
      vertex -25.7851 -15.1 1.07207
    endloop
  endfacet
  facet normal -0.563428 0.284889 0.775492
    outer loop
      vertex -25.4135 -14.65 1.17672
      vertex -26.1635 -14.65 0.631814
      vertex -25.7851 -15.1 1.07207
    endloop
  endfacet
  facet normal -0.563428 0.284889 0.775492
    outer loop
      vertex -25.457 -15.1 1.31046
      vertex -25.4135 -14.65 1.17672
      vertex -25.7851 -15.1 1.07207
    endloop
  endfacet
  facet normal 0 0.284889 0.958561
    outer loop
      vertex -25.4135 -14.65 1.17672
      vertex -25.457 -15.1 1.31046
      vertex -24.443 -15.1 1.31046
    endloop
  endfacet
  facet normal 0 0.284889 0.958561
    outer loop
      vertex -24.4865 -14.65 1.17672
      vertex -25.4135 -14.65 1.17672
      vertex -24.443 -15.1 1.31046
    endloop
  endfacet
  facet normal 0.563428 0.284889 0.775492
    outer loop
      vertex -23.9508 -15.1 0.952868
      vertex -24.4865 -14.65 1.17672
      vertex -24.443 -15.1 1.31046
    endloop
  endfacet
  facet normal 0.563428 0.284889 0.775492
    outer loop
      vertex -23.7365 -14.65 0.631814
      vertex -24.4865 -14.65 1.17672
      vertex -23.9508 -15.1 0.952868
    endloop
  endfacet
  facet normal 0.563428 0.284889 0.775492
    outer loop
      vertex -23.6227 -15.1 0.714471
      vertex -23.7365 -14.65 0.631814
      vertex -23.9508 -15.1 0.952868
    endloop
  endfacet
  facet normal 0.911645 0.28489 0.296211
    outer loop
      vertex -23.4347 -15.1 0.13587
      vertex -23.7365 -14.65 0.631814
      vertex -23.6227 -15.1 0.714471
    endloop
  endfacet
  facet normal 0.911645 0.284889 0.296212
    outer loop
      vertex -23.45 -14.65 -0.249864
      vertex -23.7365 -14.65 0.631814
      vertex -23.4347 -15.1 0.13587
    endloop
  endfacet
  facet normal 0.911645 0.284889 0.296212
    outer loop
      vertex -23.3094 -15.1 -0.249864
      vertex -23.45 -14.65 -0.249864
      vertex -23.4347 -15.1 0.13587
    endloop
  endfacet
  facet normal 0.911645 0.284889 -0.296211
    outer loop
      vertex -23.3094 -15.1 -0.249864
      vertex -23.4974 -15.1 -0.828465
      vertex -23.45 -14.65 -0.249864
    endloop
  endfacet
  facet normal 0.911645 0.28489 -0.296212
    outer loop
      vertex -23.6227 -15.1 -1.2142
      vertex -23.7365 -14.65 -1.13154
      vertex -23.45 -14.65 -0.249864
    endloop
  endfacet
  facet normal 0.911645 0.28489 -0.296212
    outer loop
      vertex -23.4974 -15.1 -0.828465
      vertex -23.6227 -15.1 -1.2142
      vertex -23.45 -14.65 -0.249864
    endloop
  endfacet
  facet normal 0.563428 0.284889 -0.775492
    outer loop
      vertex -23.6227 -15.1 -1.2142
      vertex -24.1149 -15.1 -1.57179
      vertex -23.7365 -14.65 -1.13154
    endloop
  endfacet
  facet normal 0.563428 0.284889 -0.775492
    outer loop
      vertex -24.4865 -14.65 -1.67645
      vertex -23.7365 -14.65 -1.13154
      vertex -24.443 -15.1 -1.81019
    endloop
  endfacet
  facet normal 0.563428 0.284889 -0.775492
    outer loop
      vertex -24.443 -15.1 -1.81019
      vertex -23.7365 -14.65 -1.13154
      vertex -24.1149 -15.1 -1.57179
    endloop
  endfacet
  facet normal 0 0.284889 -0.958561
    outer loop
      vertex -25.457 -15.1 -1.81019
      vertex -25.4135 -14.65 -1.67645
      vertex -24.443 -15.1 -1.81019
    endloop
  endfacet
  facet normal 0 0.284889 -0.958561
    outer loop
      vertex -24.443 -15.1 -1.81019
      vertex -25.4135 -14.65 -1.67645
      vertex -24.4865 -14.65 -1.67645
    endloop
  endfacet
  facet normal -0.563428 0.284889 -0.775492
    outer loop
      vertex -25.457 -15.1 -1.81019
      vertex -25.9492 -15.1 -1.4526
      vertex -25.4135 -14.65 -1.67645
    endloop
  endfacet
  facet normal -0.563428 0.284889 -0.775492
    outer loop
      vertex -26.2773 -15.1 -1.2142
      vertex -26.1635 -14.65 -1.13154
      vertex -25.9492 -15.1 -1.4526
    endloop
  endfacet
  facet normal -0.563428 0.284889 -0.775492
    outer loop
      vertex -25.9492 -15.1 -1.4526
      vertex -26.1635 -14.65 -1.13154
      vertex -25.4135 -14.65 -1.67645
    endloop
  endfacet
  facet normal 0 0.707107 -0.707107
    outer loop
      vertex -26.7 -15.1 8.04289
      vertex -26.7 -14.4129 8.73
      vertex -20.7 -15.1 8.04289
    endloop
  endfacet
  facet normal 0 0.707107 -0.707107
    outer loop
      vertex -20.7 -15.1 8.04289
      vertex -26.7 -14.4129 8.73
      vertex -20.7 -14.4129 8.73
    endloop
  endfacet
  facet normal 0 0 -1
    outer loop
      vertex -20.7 -12.5371 8.73
      vertex -20.7 -14.4129 8.73
      vertex -26.7 -12.5371 8.73
    endloop
  endfacet
  facet normal 0 0 -1
    outer loop
      vertex -26.7 -12.5371 8.73
      vertex -20.7 -14.4129 8.73
      vertex -26.7 -14.4129 8.73
    endloop
  endfacet
  facet normal 0 -0.707107 -0.707107
    outer loop
      vertex -26.7 -12.5371 8.73
      vertex -26.7 -11.85 8.04289
      vertex -20.7 -12.5371 8.73
    endloop
  endfacet
  facet normal 0 -0.707107 -0.707107
    outer loop
      vertex -20.7 -12.5371 8.73
      vertex -26.7 -11.85 8.04289
      vertex -20.7 -11.85 8.04289
    endloop
  endfacet
  facet normal 0 -1 0
    outer loop
      vertex -26.7 -11.85 8.04289
      vertex -26.7 -11.85 5.55
      vertex -23.7 -11.85 5.55
    endloop
  endfacet
  facet normal 0 -1 0
    outer loop
      vertex -20.7 -11.85 8.04289
      vertex -26.7 -11.85 8.04289
      vertex -20.7 -11.85 6.75
    endloop
  endfacet
  facet normal 0 -1 0
    outer loop
      vertex -20.7 -11.85 6.75
      vertex -26.7 -11.85 8.04289
      vertex -23.7 -11.85 5.55
    endloop
  endfacet
  facet normal 0 0 -1
    outer loop
      vertex -26.7 -11.85 5.55
      vertex -26.7 -10.6 5.55
      vertex -23.7 -11.85 5.55
    endloop
  endfacet
  facet normal 0 0 -1
    outer loop
      vertex -23.7 -11.85 5.55
      vertex -26.7 -10.6 5.55
      vertex -23.7 -10.6 5.55
    endloop
  endfacet
  facet normal 0 -1 0
    outer loop
      vertex -20.7 -10.6 -3.25
      vertex -20.7 -10.6 6.75
      vertex -23.7 -10.6 5.55
    endloop
  endfacet
  facet normal 0 -1 0
    outer loop
      vertex -23.7 -10.6 2.55
      vertex -20.7 -10.6 -3.25
      vertex -23.7 -10.6 5.55
    endloop
  endfacet
  facet normal 0 -1 0
    outer loop
      vertex -23.7 -10.6 2.55
      vertex -26.7 -10.6 2.55
      vertex -20.7 -10.6 -3.25
    endloop
  endfacet
  facet normal 0 -1 0
    outer loop
      vertex -26.7 -10.6 2.55
      vertex -26.7 -10.6 -3.25
      vertex -20.7 -10.6 -3.25
    endloop
  endfacet
  facet normal 0 0 1
    outer loop
      vertex -26.7 -10.6 5.55
      vertex -26.7 -11.85 5.55
      vertex -23.7 -11.85 5.55
    endloop
  endfacet
  facet normal 0 0 1
    outer loop
      vertex -23.7 -10.6 5.55
      vertex -26.7 -10.6 5.55
      vertex -23.7 -11.85 5.55
    endloop
  endfacet
  facet normal 0 -1 0
    outer loop
      vertex -26.7 -11.85 5.55
      vertex -26.7 -11.85 2.55
      vertex -23.7 -11.85 2.55
    endloop
  endfacet
  facet normal 0 -1 0
    outer loop
      vertex -23.7 -11.85 5.55
      vertex -26.7 -11.85 5.55
      vertex -23.7 -11.85 2.55
    endloop
  endfacet
  facet normal 0 0 -1
    outer loop
      vertex -26.7 -11.85 2.55
      vertex -26.7 -10.6 2.55
      vertex -23.7 -11.85 2.55
    endloop
  endfacet
  facet normal 0 0 -1
    outer loop
      vertex -23.7 -11.85 2.55
      vertex -26.7 -10.6 2.55
      vertex -23.7 -10.6 2.55
    endloop
  endfacet
  facet normal 0 0 -1
    outer loop
      vertex -26.7 -10.6 -3.25
      vertex -26.7 -7.55 -3.25
      vertex -20.7 -10.6 -3.25
    endloop
  endfacet
  facet normal 0 0 -1
    outer loop
      vertex -20.7 -10.6 -3.25
      vertex -26.7 -7.55 -3.25
      vertex -26.5284 -7.55 -3.25
    endloop
  endfacet
  facet normal 0 0 -1
    outer loop
      vertex -20.7 -10.6 -3.25
      vertex -26.5284 -7.55 -3.25
      vertex -23.7 -4.72157 -3.25
    endloop
  endfacet
  facet normal 0 0 -1
    outer loop
      vertex -20.7 -10.6 -3.25
      vertex -23.7 -4.72157 -3.25
      vertex -23.7 7.87868 -3.25
    endloop
  endfacet
  facet normal 0 0 -1
    outer loop
      vertex -20.7 -10.6 -3.25
      vertex -23.7 7.87868 -3.25
      vertex -21.5787 10 -3.25
    endloop
  endfacet
  facet normal 0 0 -1
    outer loop
      vertex -20.7 6.98 -3.25
      vertex -21.5787 10 -3.25
      vertex 21.5787 10 -3.25
    endloop
  endfacet
  facet normal 0 0 -1
    outer loop
      vertex 20.7 6.98 -3.25
      vertex 21.5787 10 -3.25
      vertex 23.7 7.87868 -3.25
    endloop
  endfacet
  facet normal 0 0 -1
    outer loop
      vertex -20.7 6.98 -3.25
      vertex 21.5787 10 -3.25
      vertex 20.7 6.98 -3.25
    endloop
  endfacet
  facet normal 0 0 -1
    outer loop
      vertex 20.7 -10.6 -3.25
      vertex 26.7 -7.55 -3.25
      vertex 26.7 -10.6 -3.25
    endloop
  endfacet
  facet normal 0 0 -1
    outer loop
      vertex 20.7 -10.02 -3.25
      vertex 26.7 -7.55 -3.25
      vertex 20.7 -10.6 -3.25
    endloop
  endfacet
  facet normal 0 0 -1
    outer loop
      vertex -20.7 -10.6 -3.25
      vertex -21.5787 10 -3.25
      vertex -20.7 -10.02 -3.25
    endloop
  endfacet
  facet normal 0 0 -1
    outer loop
      vertex -21.5787 10 -3.25
      vertex -20.7 6.98 -3.25
      vertex -20.7 -10.02 -3.25
    endloop
  endfacet
  facet normal 0 0 -1
    outer loop
      vertex 20.7 6.98 -3.25
      vertex 23.7 7.87868 -3.25
      vertex 23.7 -4.72157 -3.25
    endloop
  endfacet
  facet normal 0 0 -1
    outer loop
      vertex 26.5284 -7.55 -3.25
      vertex 26.7 -7.55 -3.25
      vertex 20.7 -10.02 -3.25
    endloop
  endfacet
  facet normal 0 0 -1
    outer loop
      vertex 23.7 -4.72157 -3.25
      vertex 26.5284 -7.55 -3.25
      vertex 20.7 -10.02 -3.25
    endloop
  endfacet
  facet normal 0 0 -1
    outer loop
      vertex 20.7 6.98 -3.25
      vertex 23.7 -4.72157 -3.25
      vertex 20.7 -10.02 -3.25
    endloop
  endfacet
  facet normal 0 1 0
    outer loop
      vertex -26.7 -7.55 -3.25
      vertex -26.7 -7.55 10.0322
      vertex -26.5284 -7.55 -3.25
    endloop
  endfacet
  facet normal 0 1 0
    outer loop
      vertex -26.5284 -7.55 3.25
      vertex -26.7 -7.55 10.0322
      vertex -20.7 -7.55 10.0322
    endloop
  endfacet
  facet normal 0 1 0
    outer loop
      vertex -26.5284 -7.55 -3.25
      vertex -26.7 -7.55 10.0322
      vertex -26.5284 -7.55 3.25
    endloop
  endfacet
  facet normal 0 1 0
    outer loop
      vertex -26.5284 -7.55 3.25
      vertex -20.7 -7.55 10.0322
      vertex -20.7 -7.55 3.75
    endloop
  endfacet
  facet normal 0 1 0
    outer loop
      vertex -26.5284 -7.55 3.25
      vertex -20.7 -7.55 3.75
      vertex -20.7 -7.55 3.25
    endloop
  endfacet
  facet normal 0 -0.707107 0.707107
    outer loop
      vertex -20.7 -7.6 9.98223
      vertex -20.7 -7.55 10.0322
      vertex -26.7 -7.55 10.0322
    endloop
  endfacet
  facet normal 0 -0.707107 0.707107
    outer loop
      vertex -26.7 -7.6 9.98223
      vertex -20.7 -7.6 9.98223
      vertex -26.7 -7.55 10.0322
    endloop
  endfacet
  facet normal 0 0.707107 0.707107
    outer loop
      vertex -20.7 -9.36777 11.75
      vertex -20.7 -7.6 9.98223
      vertex -26.7 -7.6 9.98223
    endloop
  endfacet
  facet normal 0 0.707107 0.707107
    outer loop
      vertex -26.7 -9.36777 11.75
      vertex -20.7 -9.36777 11.75
      vertex -26.7 -7.6 9.98223
    endloop
  endfacet
  facet normal 0 0 1
    outer loop
      vertex -26.7 -9.36777 11.75
      vertex -26.7 -16.3322 11.75
      vertex -20.7 -16.3322 11.75
    endloop
  endfacet
  facet normal 0 0 1
    outer loop
      vertex -20.7 -9.36777 11.75
      vertex -26.7 -9.36777 11.75
      vertex -20.7 -16.3322 11.75
    endloop
  endfacet
  facet normal 1 0 0
    outer loop
      vertex -20.7 -10.02 3.75
      vertex -20.7 -10.02 -3.25
      vertex -20.7 6.98 -3.25
    endloop
  endfacet
  facet normal 1 0 0
    outer loop
      vertex -20.7 -7.55 3.25
      vertex -20.7 -10.02 3.75
      vertex -20.7 6.98 -3.25
    endloop
  endfacet
  facet normal 1 0 0
    outer loop
      vertex -20.7 6.98 3.25
      vertex -20.7 -7.55 3.25
      vertex -20.7 6.98 -3.25
    endloop
  endfacet
  facet normal 1 0 0
    outer loop
      vertex -20.7 -7.55 3.25
      vertex -20.7 -7.55 3.75
      vertex -20.7 -10.02 3.75
    endloop
  endfacet
  facet normal 0.371391 0 -0.928477
    outer loop
      vertex -23.7 -11.85 5.55
      vertex -23.7 -10.6 5.55
      vertex -20.7 -11.85 6.75
    endloop
  endfacet
  facet normal 0.371391 0 -0.928477
    outer loop
      vertex -20.7 -11.85 6.75
      vertex -23.7 -10.6 5.55
      vertex -20.7 -10.6 6.75
    endloop
  endfacet
  facet normal -0.951056 -6.86157e-17 -0.309017
    outer loop
      vertex -26.45 -14.65 -0.249864
      vertex -26.45 -13.85 -0.249864
      vertex -26.1635 -13.85 -1.13154
    endloop
  endfacet
  facet normal -0.951056 -6.86157e-17 -0.309017
    outer loop
      vertex -26.45 -14.65 -0.249864
      vertex -26.1635 -13.85 -1.13154
      vertex -26.1635 -14.65 -1.13154
    endloop
  endfacet
  facet normal -0.951056 6.86157e-17 0.309017
    outer loop
      vertex -26.45 -13.85 -0.249864
      vertex -26.45 -14.65 -0.249864
      vertex -26.1635 -14.65 0.631814
    endloop
  endfacet
  facet normal -0.951056 6.86157e-17 0.309017
    outer loop
      vertex -26.1635 -14.65 0.631814
      vertex -26.1635 -13.85 0.631814
      vertex -26.45 -13.85 -0.249864
    endloop
  endfacet
  facet normal -0.587785 1.79638e-16 0.809017
    outer loop
      vertex -25.4135 -14.65 1.17672
      vertex -25.4135 -13.85 1.17672
      vertex -26.1635 -13.85 0.631814
    endloop
  endfacet
  facet normal -0.587785 1.79638e-16 0.809017
    outer loop
      vertex -25.4135 -14.65 1.17672
      vertex -26.1635 -13.85 0.631814
      vertex -26.1635 -14.65 0.631814
    endloop
  endfacet
  facet normal 0 2.22045e-16 1
    outer loop
      vertex -25.4135 -13.85 1.17672
      vertex -25.4135 -14.65 1.17672
      vertex -24.4865 -14.65 1.17672
    endloop
  endfacet
  facet normal 0 2.22045e-16 1
    outer loop
      vertex -24.4865 -13.85 1.17672
      vertex -25.4135 -13.85 1.17672
      vertex -24.4865 -14.65 1.17672
    endloop
  endfacet
  facet normal 0.587785 1.79638e-16 0.809017
    outer loop
      vertex -24.4865 -14.65 1.17672
      vertex -23.7365 -14.65 0.631814
      vertex -24.4865 -13.85 1.17672
    endloop
  endfacet
  facet normal 0.587785 1.79638e-16 0.809017
    outer loop
      vertex -23.7365 -14.65 0.631814
      vertex -23.7365 -13.85 0.631814
      vertex -24.4865 -13.85 1.17672
    endloop
  endfacet
  facet normal 0.951056 6.86157e-17 0.309017
    outer loop
      vertex -23.7365 -14.65 0.631814
      vertex -23.45 -14.65 -0.249864
      vertex -23.7365 -13.85 0.631814
    endloop
  endfacet
  facet normal 0.951056 6.86157e-17 0.309017
    outer loop
      vertex -23.45 -14.65 -0.249864
      vertex -23.45 -13.85 -0.249864
      vertex -23.7365 -13.85 0.631814
    endloop
  endfacet
  facet normal 0.951056 -6.86157e-17 -0.309017
    outer loop
      vertex -23.45 -14.65 -0.249864
      vertex -23.7365 -14.65 -1.13154
      vertex -23.7365 -13.85 -1.13154
    endloop
  endfacet
  facet normal 0.951056 -6.86157e-17 -0.309017
    outer loop
      vertex -23.45 -13.85 -0.249864
      vertex -23.45 -14.65 -0.249864
      vertex -23.7365 -13.85 -1.13154
    endloop
  endfacet
  facet normal 1 0 0
    outer loop
      vertex -23.7 -11.85 5.55
      vertex -23.7 -11.85 2.55
      vertex -23.7 -10.6 2.55
    endloop
  endfacet
  facet normal 1 0 0
    outer loop
      vertex -23.7 -10.6 5.55
      vertex -23.7 -11.85 5.55
      vertex -23.7 -10.6 2.55
    endloop
  endfacet
  facet normal 0 -1 0
    outer loop
      vertex 20.7 6.98 -3.25
      vertex 20.7 6.98 3.25
      vertex -20.7 6.98 3.25
    endloop
  endfacet
  facet normal 0 -1 0
    outer loop
      vertex -20.7 6.98 -3.25
      vertex 20.7 6.98 -3.25
      vertex -20.7 6.98 3.25
    endloop
  endfacet
  facet normal -1 0 0
    outer loop
      vertex 20.7 -10.02 -3.25
      vertex 20.7 -10.02 3.75
      vertex 20.7 6.98 -3.25
    endloop
  endfacet
  facet normal -1 0 0
    outer loop
      vertex 20.7 -7.55 3.25
      vertex 20.7 -10.02 3.75
      vertex 20.7 -7.55 3.75
    endloop
  endfacet
  facet normal -1 0 0
    outer loop
      vertex 20.7 6.98 -3.25
      vertex 20.7 -10.02 3.75
      vertex 20.7 -7.55 3.25
    endloop
  endfacet
  facet normal -1 0 0
    outer loop
      vertex 20.7 6.98 3.25
      vertex 20.7 6.98 -3.25
      vertex 20.7 -7.55 3.25
    endloop
  endfacet
  facet normal -1 0 0
    outer loop
      vertex 20.7 -18.05 -3.25
      vertex 20.7 -18.05 10.0322
      vertex 20.7 -15.1 -3.25
    endloop
  endfacet
  facet normal -1 0 0
    outer loop
      vertex 20.7 -15.1 -3.25
      vertex 20.7 -18.05 10.0322
      vertex 20.7 -16.3322 11.75
    endloop
  endfacet
  facet normal -1 0 0
    outer loop
      vertex 20.7 -12.5371 8.73
      vertex 20.7 -16.3322 11.75
      vertex 20.7 -9.36777 11.75
    endloop
  endfacet
  facet normal -1 0 0
    outer loop
      vertex 20.7 -10.02 3.75
      vertex 20.7 -7.55 10.0322
      vertex 20.7 -7.55 3.75
    endloop
  endfacet
  facet normal -1 0 0
    outer loop
      vertex 20.7 -10.6 6.75
      vertex 20.7 -10.02 3.75
      vertex 20.7 -10.6 -3.25
    endloop
  endfacet
  facet normal -1 0 0
    outer loop
      vertex 20.7 -10.6 6.75
      vertex 20.7 -7.6 9.98223
      vertex 20.7 -7.55 10.0322
    endloop
  endfacet
  facet normal -1 0 0
    outer loop
      vertex 20.7 -10.6 6.75
      vertex 20.7 -7.55 10.0322
      vertex 20.7 -10.02 3.75
    endloop
  endfacet
  facet normal -1 0 0
    outer loop
      vertex 20.7 -10.02 -3.25
      vertex 20.7 -10.6 -3.25
      vertex 20.7 -10.02 3.75
    endloop
  endfacet
  facet normal -1 0 0
    outer loop
      vertex 20.7 -11.85 6.75
      vertex 20.7 -9.36777 11.75
      vertex 20.7 -10.6 6.75
    endloop
  endfacet
  facet normal -1 0 0
    outer loop
      vertex 20.7 -14.4129 8.73
      vertex 20.7 -16.3322 11.75
      vertex 20.7 -12.5371 8.73
    endloop
  endfacet
  facet normal -1 0 0
    outer loop
      vertex 20.7 -11.85 6.75
      vertex 20.7 -11.85 8.04289
      vertex 20.7 -9.36777 11.75
    endloop
  endfacet
  facet normal -1 0 0
    outer loop
      vertex 20.7 -11.85 8.04289
      vertex 20.7 -12.5371 8.73
      vertex 20.7 -9.36777 11.75
    endloop
  endfacet
  facet normal -1 0 0
    outer loop
      vertex 20.7 -15.1 8.04289
      vertex 20.7 -16.3322 11.75
      vertex 20.7 -14.4129 8.73
    endloop
  endfacet
  facet normal -1 0 0
    outer loop
      vertex 20.7 -15.1 -3.25
      vertex 20.7 -16.3322 11.75
      vertex 20.7 -15.1 8.04289
    endloop
  endfacet
  facet normal -1 0 0
    outer loop
      vertex 20.7 -7.6 9.98223
      vertex 20.7 -10.6 6.75
      vertex 20.7 -9.36777 11.75
    endloop
  endfacet
  facet normal 0 -1 0
    outer loop
      vertex 23.7 -10.6 5.55
      vertex 20.7 -10.6 6.75
      vertex 23.7 -10.6 2.55
    endloop
  endfacet
  facet normal 0 -1 0
    outer loop
      vertex 26.7 -10.6 -3.25
      vertex 26.7 -10.6 2.55
      vertex 23.7 -10.6 2.55
    endloop
  endfacet
  facet normal 0 -1 0
    outer loop
      vertex 20.7 -10.6 6.75
      vertex 26.7 -10.6 -3.25
      vertex 23.7 -10.6 2.55
    endloop
  endfacet
  facet normal 0 -1 0
    outer loop
      vertex 20.7 -10.6 6.75
      vertex 20.7 -10.6 -3.25
      vertex 26.7 -10.6 -3.25
    endloop
  endfacet
  facet normal 1 0 0
    outer loop
      vertex 26.7 -10.6 2.55
      vertex 26.7 -7.55 -3.25
      vertex 26.7 -10.6 5.55
    endloop
  endfacet
  facet normal 1 0 0
    outer loop
      vertex 26.7 -18.05 10.0322
      vertex 26.7 -18.05 7.55
      vertex 26.7 -15.1 7.55
    endloop
  endfacet
  facet normal 1 0 0
    outer loop
      vertex 26.7 -14.4129 8.73
      vertex 26.7 -18.05 10.0322
      vertex 26.7 -15.1 8.04289
    endloop
  endfacet
  facet normal 1 0 0
    outer loop
      vertex 26.7 -15.1 8.04289
      vertex 26.7 -18.05 10.0322
      vertex 26.7 -15.1 7.55
    endloop
  endfacet
  facet normal 1 0 0
    outer loop
      vertex 26.7 -12.5371 8.73
      vertex 26.7 -18.05 10.0322
      vertex 26.7 -14.4129 8.73
    endloop
  endfacet
  facet normal 1 0 0
    outer loop
      vertex 26.7 -10.6 5.55
      vertex 26.7 -11.85 8.04289
      vertex 26.7 -11.85 5.55
    endloop
  endfacet
  facet normal 1 0 0
    outer loop
      vertex 26.7 -7.6 9.98223
      vertex 26.7 -11.85 8.04289
      vertex 26.7 -10.6 5.55
    endloop
  endfacet
  facet normal 1 0 0
    outer loop
      vertex 26.7 -11.85 2.55
      vertex 26.7 -10.6 5.55
      vertex 26.7 -11.85 5.55
    endloop
  endfacet
  facet normal 1 0 0
    outer loop
      vertex 26.7 -11.85 2.55
      vertex 26.7 -10.6 2.55
      vertex 26.7 -10.6 5.55
    endloop
  endfacet
  facet normal 1 0 0
    outer loop
      vertex 26.7 -10.6 -3.25
      vertex 26.7 -7.55 -3.25
      vertex 26.7 -10.6 2.55
    endloop
  endfacet
  facet normal 1 0 0
    outer loop
      vertex 26.7 -7.55 -3.25
      vertex 26.7 -7.55 10.0322
      vertex 26.7 -10.6 5.55
    endloop
  endfacet
  facet normal 1 0 0
    outer loop
      vertex 26.7 -7.55 10.0322
      vertex 26.7 -7.6 9.98223
      vertex 26.7 -10.6 5.55
    endloop
  endfacet
  facet normal 1 0 0
    outer loop
      vertex 26.7 -9.36777 11.75
      vertex 26.7 -16.3322 11.75
      vertex 26.7 -18.05 10.0322
    endloop
  endfacet
  facet normal 1 0 0
    outer loop
      vertex 26.7 -7.6 9.98223
      vertex 26.7 -12.5371 8.73
      vertex 26.7 -11.85 8.04289
    endloop
  endfacet
  facet normal 1 0 0
    outer loop
      vertex 26.7 -7.6 9.98223
      vertex 26.7 -18.05 10.0322
      vertex 26.7 -12.5371 8.73
    endloop
  endfacet
  facet normal 1 0 0
    outer loop
      vertex 26.7 -7.6 9.98223
      vertex 26.7 -9.36777 11.75
      vertex 26.7 -18.05 10.0322
    endloop
  endfacet
  facet normal 0 1 0
    outer loop
      vertex 20.7 -7.55 3.25
      vertex 20.7 -7.55 3.75
      vertex 26.5284 -7.55 3.25
    endloop
  endfacet
  facet normal 0 1 0
    outer loop
      vertex 26.5284 -7.55 3.25
      vertex 20.7 -7.55 3.75
      vertex 20.7 -7.55 10.0322
    endloop
  endfacet
  facet normal 0 1 0
    outer loop
      vertex 26.5284 -7.55 3.25
      vertex 20.7 -7.55 10.0322
      vertex 26.7 -7.55 10.0322
    endloop
  endfacet
  facet normal 0 1 0
    outer loop
      vertex 26.5284 -7.55 3.25
      vertex 26.7 -7.55 10.0322
      vertex 26.7 -7.55 -3.25
    endloop
  endfacet
  facet normal 0 1 0
    outer loop
      vertex 26.5284 -7.55 3.25
      vertex 26.7 -7.55 -3.25
      vertex 26.5284 -7.55 -3.25
    endloop
  endfacet
  facet normal 0.707107 0.707107 0
    outer loop
      vertex 23.7 -4.72157 -3.25
      vertex 23.7 -4.72157 3.25
      vertex 26.5284 -7.55 -3.25
    endloop
  endfacet
  facet normal 0.707107 0.707107 0
    outer loop
      vertex 26.5284 -7.55 -3.25
      vertex 23.7 -4.72157 3.25
      vertex 26.5284 -7.55 3.25
    endloop
  endfacet
  facet normal 1 0 0
    outer loop
      vertex 23.7 -4.72157 3.25
      vertex 23.7 -4.72157 -3.25
      vertex 23.7 7.87868 -3.25
    endloop
  endfacet
  facet normal 1 0 0
    outer loop
      vertex 23.7 7.87868 3.25
      vertex 23.7 -4.72157 3.25
      vertex 23.7 7.87868 -3.25
    endloop
  endfacet
  facet normal 0.707107 0.707107 0
    outer loop
      vertex 23.7 7.87868 3.25
      vertex 23.7 7.87868 -3.25
      vertex 21.5787 10 3.25
    endloop
  endfacet
  facet normal 0.707107 0.707107 0
    outer loop
      vertex 21.5787 10 3.25
      vertex 23.7 7.87868 -3.25
      vertex 21.5787 10 -3.25
    endloop
  endfacet
  facet normal 0 1 0
    outer loop
      vertex -21.5787 10 -3.25
      vertex -21.5787 10 3.25
      vertex 21.5787 10 -3.25
    endloop
  endfacet
  facet normal 0 1 0
    outer loop
      vertex 21.5787 10 -3.25
      vertex -21.5787 10 3.25
      vertex 21.5787 10 3.25
    endloop
  endfacet
  facet normal -0.707107 0.707107 0
    outer loop
      vertex -21.5787 10 3.25
      vertex -21.5787 10 -3.25
      vertex -23.7 7.87868 3.25
    endloop
  endfacet
  facet normal -0.707107 0.707107 0
    outer loop
      vertex -23.7 7.87868 3.25
      vertex -21.5787 10 -3.25
      vertex -23.7 7.87868 -3.25
    endloop
  endfacet
  facet normal -1 0 0
    outer loop
      vertex -23.7 -4.72157 -3.25
      vertex -23.7 -4.72157 3.25
      vertex -23.7 7.87868 -3.25
    endloop
  endfacet
  facet normal -1 0 0
    outer loop
      vertex -23.7 7.87868 -3.25
      vertex -23.7 -4.72157 3.25
      vertex -23.7 7.87868 3.25
    endloop
  endfacet
  facet normal -0.707107 0.707107 0
    outer loop
      vertex -26.5284 -7.55 -3.25
      vertex -26.5284 -7.55 3.25
      vertex -23.7 -4.72157 -3.25
    endloop
  endfacet
  facet normal -0.707107 0.707107 0
    outer loop
      vertex -23.7 -4.72157 -3.25
      vertex -26.5284 -7.55 3.25
      vertex -23.7 -4.72157 3.25
    endloop
  endfacet
  facet normal 0 0 1
    outer loop
      vertex -23.7 -4.72157 3.25
      vertex -26.5284 -7.55 3.25
      vertex -20.7 -7.55 3.25
    endloop
  endfacet
  facet normal 0 0 1
    outer loop
      vertex 23.7 7.87868 3.25
      vertex -20.7 6.98 3.25
      vertex 20.7 6.98 3.25
    endloop
  endfacet
  facet normal 0 0 1
    outer loop
      vertex 23.7 -4.72157 3.25
      vertex 20.7 6.98 3.25
      vertex 20.7 -7.55 3.25
    endloop
  endfacet
  facet normal 0 0 1
    outer loop
      vertex 23.7 -4.72157 3.25
      vertex 23.7 7.87868 3.25
      vertex 20.7 6.98 3.25
    endloop
  endfacet
  facet normal 0 0 1
    outer loop
      vertex 26.5284 -7.55 3.25
      vertex 23.7 -4.72157 3.25
      vertex 20.7 -7.55 3.25
    endloop
  endfacet
  facet normal 0 0 1
    outer loop
      vertex 21.5787 10 3.25
      vertex -20.7 6.98 3.25
      vertex 23.7 7.87868 3.25
    endloop
  endfacet
  facet normal 0 0 1
    outer loop
      vertex -21.5787 10 3.25
      vertex -20.7 6.98 3.25
      vertex 21.5787 10 3.25
    endloop
  endfacet
  facet normal 0 0 1
    outer loop
      vertex -23.7 7.87868 3.25
      vertex -20.7 6.98 3.25
      vertex -21.5787 10 3.25
    endloop
  endfacet
  facet normal 0 0 1
    outer loop
      vertex -23.7 7.87868 3.25
      vertex -20.7 -7.55 3.25
      vertex -20.7 6.98 3.25
    endloop
  endfacet
  facet normal 0 0 1
    outer loop
      vertex -23.7 7.87868 3.25
      vertex -23.7 -4.72157 3.25
      vertex -20.7 -7.55 3.25
    endloop
  endfacet
  facet normal 0.587785 -1.79638e-16 -0.809017
    outer loop
      vertex -24.4865 -14.65 -1.67645
      vertex -24.4865 -13.85 -1.67645
      vertex -23.7365 -14.65 -1.13154
    endloop
  endfacet
  facet normal 0.587785 -1.79638e-16 -0.809017
    outer loop
      vertex -23.7365 -14.65 -1.13154
      vertex -24.4865 -13.85 -1.67645
      vertex -23.7365 -13.85 -1.13154
    endloop
  endfacet
  facet normal 0 -2.22045e-16 -1
    outer loop
      vertex -25.4135 -14.65 -1.67645
      vertex -25.4135 -13.85 -1.67645
      vertex -24.4865 -14.65 -1.67645
    endloop
  endfacet
  facet normal 0 -2.22045e-16 -1
    outer loop
      vertex -24.4865 -14.65 -1.67645
      vertex -25.4135 -13.85 -1.67645
      vertex -24.4865 -13.85 -1.67645
    endloop
  endfacet
  facet normal -0.587785 -1.79638e-16 -0.809017
    outer loop
      vertex -26.1635 -14.65 -1.13154
      vertex -26.1635 -13.85 -1.13154
      vertex -25.4135 -14.65 -1.67645
    endloop
  endfacet
  facet normal -0.587785 -1.79638e-16 -0.809017
    outer loop
      vertex -25.4135 -14.65 -1.67645
      vertex -26.1635 -13.85 -1.13154
      vertex -25.4135 -13.85 -1.67645
    endloop
  endfacet
  facet normal 0 1 -2.22045e-16
    outer loop
      vertex -26.45 -13.85 -0.249864
      vertex -26.1635 -13.85 0.631814
      vertex -26.1635 -13.85 -1.13154
    endloop
  endfacet
  facet normal 0 1 -2.22045e-16
    outer loop
      vertex -26.1635 -13.85 -1.13154
      vertex -26.1635 -13.85 0.631814
      vertex -25.4135 -13.85 1.17672
    endloop
  endfacet
  facet normal 0 1 -2.22045e-16
    outer loop
      vertex -26.1635 -13.85 -1.13154
      vertex -25.4135 -13.85 1.17672
      vertex -24.4865 -13.85 1.17672
    endloop
  endfacet
  facet normal 0 1 -2.22045e-16
    outer loop
      vertex -26.1635 -13.85 -1.13154
      vertex -24.4865 -13.85 1.17672
      vertex -23.7365 -13.85 0.631814
    endloop
  endfacet
  facet normal 0 1 -2.22045e-16
    outer loop
      vertex -26.1635 -13.85 -1.13154
      vertex -23.7365 -13.85 0.631814
      vertex -23.45 -13.85 -0.249864
    endloop
  endfacet
  facet normal 0 1 -2.22045e-16
    outer loop
      vertex -26.1635 -13.85 -1.13154
      vertex -23.45 -13.85 -0.249864
      vertex -23.7365 -13.85 -1.13154
    endloop
  endfacet
  facet normal 0 1 -2.22045e-16
    outer loop
      vertex -26.1635 -13.85 -1.13154
      vertex -23.7365 -13.85 -1.13154
      vertex -24.4865 -13.85 -1.67645
    endloop
  endfacet
  facet normal 0 1 -2.22045e-16
    outer loop
      vertex -26.1635 -13.85 -1.13154
      vertex -24.4865 -13.85 -1.67645
      vertex -25.4135 -13.85 -1.67645
    endloop
  endfacet
  facet normal 0 0 -1
    outer loop
      vertex 20.7 -18.05 -3.25
      vertex 20.7 -15.1 -3.25
      vertex 22.7 -18.05 -3.25
    endloop
  endfacet
  facet normal 0 0 -1
    outer loop
      vertex 22.7 -18.05 -3.25
      vertex 20.7 -15.1 -3.25
      vertex 22.7 -15.1 -3.25
    endloop
  endfacet
  facet normal 0 1 0
    outer loop
      vertex 26.7 -15.1 8.04289
      vertex 26.7 -15.1 7.55
      vertex 20.7 -15.1 8.04289
    endloop
  endfacet
  facet normal 0 1 0
    outer loop
      vertex 20.7 -15.1 8.04289
      vertex 26.7 -15.1 7.55
      vertex 30.7 -15.1 6
    endloop
  endfacet
  facet normal 0 1 0
    outer loop
      vertex 20.7 -15.1 8.04289
      vertex 30.7 -15.1 6
      vertex 30.7 -15.1 -1
    endloop
  endfacet
  facet normal 0 1 0
    outer loop
      vertex 26.5906 -15.1 -0.249864
      vertex 30.7 -15.1 -1
      vertex 28.7 -15.1 -3.25
    endloop
  endfacet
  facet normal 0 1 0
    outer loop
      vertex 24.443 -15.1 -1.81019
      vertex 28.7 -15.1 -3.25
      vertex 22.7 -15.1 -3.25
    endloop
  endfacet
  facet normal 0 1 0
    outer loop
      vertex 20.7 -15.1 8.04289
      vertex 22.7 -15.1 -3.25
      vertex 20.7 -15.1 -3.25
    endloop
  endfacet
  facet normal 0 1 0
    outer loop
      vertex 26.5906 -15.1 -0.249864
      vertex 28.7 -15.1 -3.25
      vertex 26.4026 -15.1 -0.828465
    endloop
  endfacet
  facet normal 0 1 0
    outer loop
      vertex 23.3094 -15.1 -0.249864
      vertex 23.4347 -15.1 -0.635598
      vertex 22.7 -15.1 -3.25
    endloop
  endfacet
  facet normal 0 1 0
    outer loop
      vertex 25.7851 -15.1 -1.57179
      vertex 28.7 -15.1 -3.25
      vertex 25.457 -15.1 -1.81019
    endloop
  endfacet
  facet normal 0 1 0
    outer loop
      vertex 23.4347 -15.1 -0.635598
      vertex 23.6227 -15.1 -1.2142
      vertex 22.7 -15.1 -3.25
    endloop
  endfacet
  facet normal 0 1 0
    outer loop
      vertex 23.6227 -15.1 -1.2142
      vertex 23.9508 -15.1 -1.4526
      vertex 22.7 -15.1 -3.25
    endloop
  endfacet
  facet normal 0 1 0
    outer loop
      vertex 23.9508 -15.1 -1.4526
      vertex 24.443 -15.1 -1.81019
      vertex 22.7 -15.1 -3.25
    endloop
  endfacet
  facet normal 0 1 0
    outer loop
      vertex 24.443 -15.1 1.31046
      vertex 20.7 -15.1 8.04289
      vertex 25.457 -15.1 1.31046
    endloop
  endfacet
  facet normal 0 1 0
    outer loop
      vertex 26.2773 -15.1 -1.2142
      vertex 28.7 -15.1 -3.25
      vertex 25.7851 -15.1 -1.57179
    endloop
  endfacet
  facet normal 0 1 0
    outer loop
      vertex 26.4026 -15.1 -0.828465
      vertex 28.7 -15.1 -3.25
      vertex 26.2773 -15.1 -1.2142
    endloop
  endfacet
  facet normal 0 1 0
    outer loop
      vertex 26.4653 -15.1 0.13587
      vertex 30.7 -15.1 -1
      vertex 26.5906 -15.1 -0.249864
    endloop
  endfacet
  facet normal 0 1 0
    outer loop
      vertex 25.457 -15.1 1.31046
      vertex 20.7 -15.1 8.04289
      vertex 25.9492 -15.1 0.952868
    endloop
  endfacet
  facet normal 0 1 0
    outer loop
      vertex 26.2773 -15.1 0.714471
      vertex 30.7 -15.1 -1
      vertex 26.4653 -15.1 0.13587
    endloop
  endfacet
  facet normal 0 1 0
    outer loop
      vertex 20.7 -15.1 8.04289
      vertex 30.7 -15.1 -1
      vertex 26.2773 -15.1 0.714471
    endloop
  endfacet
  facet normal 0 1 0
    outer loop
      vertex 20.7 -15.1 8.04289
      vertex 26.2773 -15.1 0.714471
      vertex 25.9492 -15.1 0.952868
    endloop
  endfacet
  facet normal 0 1 0
    outer loop
      vertex 24.1149 -15.1 1.07207
      vertex 20.7 -15.1 8.04289
      vertex 24.443 -15.1 1.31046
    endloop
  endfacet
  facet normal 0 1 0
    outer loop
      vertex 23.3094 -15.1 -0.249864
      vertex 20.7 -15.1 8.04289
      vertex 23.4974 -15.1 0.328737
    endloop
  endfacet
  facet normal 0 1 0
    outer loop
      vertex 20.7 -15.1 8.04289
      vertex 24.1149 -15.1 1.07207
      vertex 23.6227 -15.1 0.714471
    endloop
  endfacet
  facet normal 0 1 0
    outer loop
      vertex 20.7 -15.1 8.04289
      vertex 23.6227 -15.1 0.714471
      vertex 23.4974 -15.1 0.328737
    endloop
  endfacet
  facet normal 0 1 0
    outer loop
      vertex 20.7 -15.1 8.04289
      vertex 23.3094 -15.1 -0.249864
      vertex 22.7 -15.1 -3.25
    endloop
  endfacet
  facet normal 0 1 0
    outer loop
      vertex 25.457 -15.1 -1.81019
      vertex 28.7 -15.1 -3.25
      vertex 24.443 -15.1 -1.81019
    endloop
  endfacet
  facet normal 0 0.707107 -0.707107
    outer loop
      vertex 20.7 -15.1 8.04289
      vertex 20.7 -14.4129 8.73
      vertex 26.7 -15.1 8.04289
    endloop
  endfacet
  facet normal 0 0.707107 -0.707107
    outer loop
      vertex 26.7 -15.1 8.04289
      vertex 20.7 -14.4129 8.73
      vertex 26.7 -14.4129 8.73
    endloop
  endfacet
  facet normal 0 0 -1
    outer loop
      vertex 26.7 -12.5371 8.73
      vertex 26.7 -14.4129 8.73
      vertex 20.7 -12.5371 8.73
    endloop
  endfacet
  facet normal 0 0 -1
    outer loop
      vertex 20.7 -12.5371 8.73
      vertex 26.7 -14.4129 8.73
      vertex 20.7 -14.4129 8.73
    endloop
  endfacet
  facet normal 0 -0.707107 -0.707107
    outer loop
      vertex 20.7 -12.5371 8.73
      vertex 20.7 -11.85 8.04289
      vertex 26.7 -12.5371 8.73
    endloop
  endfacet
  facet normal 0 -0.707107 -0.707107
    outer loop
      vertex 26.7 -12.5371 8.73
      vertex 20.7 -11.85 8.04289
      vertex 26.7 -11.85 8.04289
    endloop
  endfacet
  facet normal 0 -1 0
    outer loop
      vertex 20.7 -11.85 8.04289
      vertex 20.7 -11.85 6.75
      vertex 23.7 -11.85 5.55
    endloop
  endfacet
  facet normal 0 -1 0
    outer loop
      vertex 26.7 -11.85 8.04289
      vertex 20.7 -11.85 8.04289
      vertex 26.7 -11.85 5.55
    endloop
  endfacet
  facet normal 0 -1 0
    outer loop
      vertex 26.7 -11.85 5.55
      vertex 20.7 -11.85 8.04289
      vertex 23.7 -11.85 5.55
    endloop
  endfacet
  facet normal -0.371391 0 -0.928477
    outer loop
      vertex 20.7 -11.85 6.75
      vertex 20.7 -10.6 6.75
      vertex 23.7 -11.85 5.55
    endloop
  endfacet
  facet normal -0.371391 0 -0.928477
    outer loop
      vertex 23.7 -11.85 5.55
      vertex 20.7 -10.6 6.75
      vertex 23.7 -10.6 5.55
    endloop
  endfacet
  facet normal 0 -0.707107 0.707107
    outer loop
      vertex 26.7 -7.6 9.98223
      vertex 26.7 -7.55 10.0322
      vertex 20.7 -7.55 10.0322
    endloop
  endfacet
  facet normal 0 -0.707107 0.707107
    outer loop
      vertex 20.7 -7.6 9.98223
      vertex 26.7 -7.6 9.98223
      vertex 20.7 -7.55 10.0322
    endloop
  endfacet
  facet normal 0 0.707107 0.707107
    outer loop
      vertex 26.7 -9.36777 11.75
      vertex 26.7 -7.6 9.98223
      vertex 20.7 -7.6 9.98223
    endloop
  endfacet
  facet normal 0 0.707107 0.707107
    outer loop
      vertex 20.7 -9.36777 11.75
      vertex 26.7 -9.36777 11.75
      vertex 20.7 -7.6 9.98223
    endloop
  endfacet
  facet normal 0 0 1
    outer loop
      vertex 20.7 -9.36777 11.75
      vertex 20.7 -16.3322 11.75
      vertex 26.7 -16.3322 11.75
    endloop
  endfacet
  facet normal 0 0 1
    outer loop
      vertex 26.7 -9.36777 11.75
      vertex 20.7 -9.36777 11.75
      vertex 26.7 -16.3322 11.75
    endloop
  endfacet
  facet normal 0 -0.707107 0.707107
    outer loop
      vertex 26.7 -18.05 10.0322
      vertex 26.7 -16.3322 11.75
      vertex 20.7 -16.3322 11.75
    endloop
  endfacet
  facet normal 0 -0.707107 0.707107
    outer loop
      vertex 20.7 -18.05 10.0322
      vertex 26.7 -18.05 10.0322
      vertex 20.7 -16.3322 11.75
    endloop
  endfacet
  facet normal 0 -1 0
    outer loop
      vertex 20.7 -18.05 10.0322
      vertex 20.7 -18.05 -3.25
      vertex 22.7 -18.05 -3.25
    endloop
  endfacet
  facet normal 0 -1 0
    outer loop
      vertex 22.7 -18.05 -3.25
      vertex 28.7 -18.05 -3.25
      vertex 20.7 -18.05 10.0322
    endloop
  endfacet
  facet normal 0 -1 0
    outer loop
      vertex 28.7 -18.05 -3.25
      vertex 30.7 -18.05 -1
      vertex 20.7 -18.05 10.0322
    endloop
  endfacet
  facet normal 0 -1 0
    outer loop
      vertex 30.7 -18.05 -1
      vertex 26.7 -18.05 7.55
      vertex 20.7 -18.05 10.0322
    endloop
  endfacet
  facet normal 0 -1 0
    outer loop
      vertex 30.7 -18.05 -1
      vertex 30.7 -18.05 6
      vertex 26.7 -18.05 7.55
    endloop
  endfacet
  facet normal 0 -1 0
    outer loop
      vertex 26.7 -18.05 7.55
      vertex 26.7 -18.05 10.0322
      vertex 20.7 -18.05 10.0322
    endloop
  endfacet
  facet normal 0 0 -1
    outer loop
      vertex 23.7 -11.85 5.55
      vertex 23.7 -10.6 5.55
      vertex 26.7 -11.85 5.55
    endloop
  endfacet
  facet normal 0 0 -1
    outer loop
      vertex 26.7 -11.85 5.55
      vertex 23.7 -10.6 5.55
      vertex 26.7 -10.6 5.55
    endloop
  endfacet
  facet normal 0 0 1
    outer loop
      vertex 23.7 -10.6 5.55
      vertex 23.7 -11.85 5.55
      vertex 26.7 -11.85 5.55
    endloop
  endfacet
  facet normal 0 0 1
    outer loop
      vertex 26.7 -10.6 5.55
      vertex 23.7 -10.6 5.55
      vertex 26.7 -11.85 5.55
    endloop
  endfacet
  facet normal -1 0 0
    outer loop
      vertex 23.7 -11.85 2.55
      vertex 23.7 -11.85 5.55
      vertex 23.7 -10.6 2.55
    endloop
  endfacet
  facet normal -1 0 0
    outer loop
      vertex 23.7 -10.6 2.55
      vertex 23.7 -11.85 5.55
      vertex 23.7 -10.6 5.55
    endloop
  endfacet
  facet normal 0 0 -1
    outer loop
      vertex 23.7 -11.85 2.55
      vertex 23.7 -10.6 2.55
      vertex 26.7 -11.85 2.55
    endloop
  endfacet
  facet normal 0 0 -1
    outer loop
      vertex 26.7 -11.85 2.55
      vertex 23.7 -10.6 2.55
      vertex 26.7 -10.6 2.55
    endloop
  endfacet
  facet normal 0 -1 0
    outer loop
      vertex 23.7 -11.85 5.55
      vertex 23.7 -11.85 2.55
      vertex 26.7 -11.85 2.55
    endloop
  endfacet
  facet normal 0 -1 0
    outer loop
      vertex 26.7 -11.85 5.55
      vertex 23.7 -11.85 5.55
      vertex 26.7 -11.85 2.55
    endloop
  endfacet
  facet normal 0.361321 0 0.932441
    outer loop
      vertex 26.7 -15.1 7.55
      vertex 26.7 -18.05 7.55
      vertex 30.7 -18.05 6
    endloop
  endfacet
  facet normal 0.361321 0 0.932441
    outer loop
      vertex 30.7 -15.1 6
      vertex 26.7 -15.1 7.55
      vertex 30.7 -18.05 6
    endloop
  endfacet
  facet normal 0 0 -1
    outer loop
      vertex 22.7 -18.05 -3.25
      vertex 22.7 -15.1 -3.25
      vertex 28.7 -18.05 -3.25
    endloop
  endfacet
  facet normal 0 0 -1
    outer loop
      vertex 28.7 -18.05 -3.25
      vertex 22.7 -15.1 -3.25
      vertex 28.7 -15.1 -3.25
    endloop
  endfacet
  facet normal 0.747409 0 -0.664364
    outer loop
      vertex 30.7 -18.05 -1
      vertex 28.7 -18.05 -3.25
      vertex 28.7 -15.1 -3.25
    endloop
  endfacet
  facet normal 0.747409 0 -0.664364
    outer loop
      vertex 30.7 -15.1 -1
      vertex 30.7 -18.05 -1
      vertex 28.7 -15.1 -3.25
    endloop
  endfacet
  facet normal 1 0 0
    outer loop
      vertex 30.7 -18.05 6
      vertex 30.7 -18.05 -1
      vertex 30.7 -15.1 -1
    endloop
  endfacet
  facet normal 1 0 0
    outer loop
      vertex 30.7 -15.1 6
      vertex 30.7 -18.05 6
      vertex 30.7 -15.1 -1
    endloop
  endfacet
  facet normal -0.911645 0.28489 -0.296211
    outer loop
      vertex 23.6227 -15.1 -1.2142
      vertex 23.4347 -15.1 -0.635598
      vertex 23.7365 -14.65 -1.13154
    endloop
  endfacet
  facet normal -0.911645 0.284889 -0.296212
    outer loop
      vertex 23.3094 -15.1 -0.249864
      vertex 23.45 -14.65 -0.249864
      vertex 23.4347 -15.1 -0.635598
    endloop
  endfacet
  facet normal -0.911645 0.284889 -0.296212
    outer loop
      vertex 23.4347 -15.1 -0.635598
      vertex 23.45 -14.65 -0.249864
      vertex 23.7365 -14.65 -1.13154
    endloop
  endfacet
  facet normal -0.911645 0.284889 0.296211
    outer loop
      vertex 23.3094 -15.1 -0.249864
      vertex 23.4974 -15.1 0.328737
      vertex 23.45 -14.65 -0.249864
    endloop
  endfacet
  facet normal -0.911645 0.28489 0.296212
    outer loop
      vertex 23.45 -14.65 -0.249864
      vertex 23.4974 -15.1 0.328737
      vertex 23.7365 -14.65 0.631814
    endloop
  endfacet
  facet normal -0.911645 0.28489 0.296212
    outer loop
      vertex 23.7365 -14.65 0.631814
      vertex 23.4974 -15.1 0.328737
      vertex 23.6227 -15.1 0.714471
    endloop
  endfacet
  facet normal -0.563428 0.284889 0.775492
    outer loop
      vertex 23.7365 -14.65 0.631814
      vertex 23.6227 -15.1 0.714471
      vertex 24.1149 -15.1 1.07207
    endloop
  endfacet
  facet normal -0.563428 0.284889 0.775492
    outer loop
      vertex 24.4865 -14.65 1.17672
      vertex 23.7365 -14.65 0.631814
      vertex 24.1149 -15.1 1.07207
    endloop
  endfacet
  facet normal -0.563428 0.284889 0.775492
    outer loop
      vertex 24.443 -15.1 1.31046
      vertex 24.4865 -14.65 1.17672
      vertex 24.1149 -15.1 1.07207
    endloop
  endfacet
  facet normal 0 0.284889 0.958561
    outer loop
      vertex 24.4865 -14.65 1.17672
      vertex 24.443 -15.1 1.31046
      vertex 25.457 -15.1 1.31046
    endloop
  endfacet
  facet normal 0 0.284889 0.958561
    outer loop
      vertex 25.4135 -14.65 1.17672
      vertex 24.4865 -14.65 1.17672
      vertex 25.457 -15.1 1.31046
    endloop
  endfacet
  facet normal 0.563428 0.284889 0.775492
    outer loop
      vertex 25.9492 -15.1 0.952868
      vertex 25.4135 -14.65 1.17672
      vertex 25.457 -15.1 1.31046
    endloop
  endfacet
  facet normal 0.563428 0.284889 0.775492
    outer loop
      vertex 26.1635 -14.65 0.631814
      vertex 25.4135 -14.65 1.17672
      vertex 25.9492 -15.1 0.952868
    endloop
  endfacet
  facet normal 0.563428 0.284889 0.775492
    outer loop
      vertex 26.2773 -15.1 0.714471
      vertex 26.1635 -14.65 0.631814
      vertex 25.9492 -15.1 0.952868
    endloop
  endfacet
  facet normal 0.911645 0.28489 0.296211
    outer loop
      vertex 26.4653 -15.1 0.13587
      vertex 26.1635 -14.65 0.631814
      vertex 26.2773 -15.1 0.714471
    endloop
  endfacet
  facet normal 0.911645 0.284889 0.296212
    outer loop
      vertex 26.45 -14.65 -0.249864
      vertex 26.1635 -14.65 0.631814
      vertex 26.4653 -15.1 0.13587
    endloop
  endfacet
  facet normal 0.911645 0.284889 0.296212
    outer loop
      vertex 26.5906 -15.1 -0.249864
      vertex 26.45 -14.65 -0.249864
      vertex 26.4653 -15.1 0.13587
    endloop
  endfacet
  facet normal 0.911645 0.284889 -0.296211
    outer loop
      vertex 26.5906 -15.1 -0.249864
      vertex 26.4026 -15.1 -0.828465
      vertex 26.45 -14.65 -0.249864
    endloop
  endfacet
  facet normal 0.911645 0.28489 -0.296212
    outer loop
      vertex 26.2773 -15.1 -1.2142
      vertex 26.1635 -14.65 -1.13154
      vertex 26.45 -14.65 -0.249864
    endloop
  endfacet
  facet normal 0.911645 0.28489 -0.296212
    outer loop
      vertex 26.4026 -15.1 -0.828465
      vertex 26.2773 -15.1 -1.2142
      vertex 26.45 -14.65 -0.249864
    endloop
  endfacet
  facet normal 0.563428 0.284889 -0.775492
    outer loop
      vertex 26.2773 -15.1 -1.2142
      vertex 25.7851 -15.1 -1.57179
      vertex 26.1635 -14.65 -1.13154
    endloop
  endfacet
  facet normal 0.563428 0.284889 -0.775492
    outer loop
      vertex 25.4135 -14.65 -1.67645
      vertex 26.1635 -14.65 -1.13154
      vertex 25.457 -15.1 -1.81019
    endloop
  endfacet
  facet normal 0.563428 0.284889 -0.775492
    outer loop
      vertex 25.457 -15.1 -1.81019
      vertex 26.1635 -14.65 -1.13154
      vertex 25.7851 -15.1 -1.57179
    endloop
  endfacet
  facet normal 0 0.284889 -0.958561
    outer loop
      vertex 24.443 -15.1 -1.81019
      vertex 24.4865 -14.65 -1.67645
      vertex 25.457 -15.1 -1.81019
    endloop
  endfacet
  facet normal 0 0.284889 -0.958561
    outer loop
      vertex 25.457 -15.1 -1.81019
      vertex 24.4865 -14.65 -1.67645
      vertex 25.4135 -14.65 -1.67645
    endloop
  endfacet
  facet normal -0.563428 0.284889 -0.775492
    outer loop
      vertex 24.443 -15.1 -1.81019
      vertex 23.9508 -15.1 -1.4526
      vertex 24.4865 -14.65 -1.67645
    endloop
  endfacet
  facet normal -0.563428 0.284889 -0.775492
    outer loop
      vertex 23.6227 -15.1 -1.2142
      vertex 23.7365 -14.65 -1.13154
      vertex 23.9508 -15.1 -1.4526
    endloop
  endfacet
  facet normal -0.563428 0.284889 -0.775492
    outer loop
      vertex 23.9508 -15.1 -1.4526
      vertex 23.7365 -14.65 -1.13154
      vertex 24.4865 -14.65 -1.67645
    endloop
  endfacet
  facet normal -0.951056 -6.86157e-17 -0.309017
    outer loop
      vertex 23.45 -14.65 -0.249864
      vertex 23.45 -13.85 -0.249864
      vertex 23.7365 -13.85 -1.13154
    endloop
  endfacet
  facet normal -0.951056 -6.86157e-17 -0.309017
    outer loop
      vertex 23.45 -14.65 -0.249864
      vertex 23.7365 -13.85 -1.13154
      vertex 23.7365 -14.65 -1.13154
    endloop
  endfacet
  facet normal -0.951056 6.86157e-17 0.309017
    outer loop
      vertex 23.45 -13.85 -0.249864
      vertex 23.45 -14.65 -0.249864
      vertex 23.7365 -14.65 0.631814
    endloop
  endfacet
  facet normal -0.951056 6.86157e-17 0.309017
    outer loop
      vertex 23.7365 -14.65 0.631814
      vertex 23.7365 -13.85 0.631814
      vertex 23.45 -13.85 -0.249864
    endloop
  endfacet
  facet normal -0.587785 1.79638e-16 0.809017
    outer loop
      vertex 24.4865 -14.65 1.17672
      vertex 24.4865 -13.85 1.17672
      vertex 23.7365 -13.85 0.631814
    endloop
  endfacet
  facet normal -0.587785 1.79638e-16 0.809017
    outer loop
      vertex 24.4865 -14.65 1.17672
      vertex 23.7365 -13.85 0.631814
      vertex 23.7365 -14.65 0.631814
    endloop
  endfacet
  facet normal 0 2.22045e-16 1
    outer loop
      vertex 24.4865 -13.85 1.17672
      vertex 24.4865 -14.65 1.17672
      vertex 25.4135 -14.65 1.17672
    endloop
  endfacet
  facet normal 0 2.22045e-16 1
    outer loop
      vertex 25.4135 -13.85 1.17672
      vertex 24.4865 -13.85 1.17672
      vertex 25.4135 -14.65 1.17672
    endloop
  endfacet
  facet normal 0.587785 1.79638e-16 0.809017
    outer loop
      vertex 25.4135 -14.65 1.17672
      vertex 26.1635 -14.65 0.631814
      vertex 25.4135 -13.85 1.17672
    endloop
  endfacet
  facet normal 0.587785 1.79638e-16 0.809017
    outer loop
      vertex 26.1635 -14.65 0.631814
      vertex 26.1635 -13.85 0.631814
      vertex 25.4135 -13.85 1.17672
    endloop
  endfacet
  facet normal 0.951056 6.86157e-17 0.309017
    outer loop
      vertex 26.1635 -14.65 0.631814
      vertex 26.45 -14.65 -0.249864
      vertex 26.1635 -13.85 0.631814
    endloop
  endfacet
  facet normal 0.951056 6.86157e-17 0.309017
    outer loop
      vertex 26.45 -14.65 -0.249864
      vertex 26.45 -13.85 -0.249864
      vertex 26.1635 -13.85 0.631814
    endloop
  endfacet
  facet normal 0.951056 -6.86157e-17 -0.309017
    outer loop
      vertex 26.45 -14.65 -0.249864
      vertex 26.1635 -14.65 -1.13154
      vertex 26.1635 -13.85 -1.13154
    endloop
  endfacet
  facet normal 0.951056 -6.86157e-17 -0.309017
    outer loop
      vertex 26.45 -13.85 -0.249864
      vertex 26.45 -14.65 -0.249864
      vertex 26.1635 -13.85 -1.13154
    endloop
  endfacet
  facet normal 0.587785 -1.79638e-16 -0.809017
    outer loop
      vertex 25.4135 -14.65 -1.67645
      vertex 25.4135 -13.85 -1.67645
      vertex 26.1635 -14.65 -1.13154
    endloop
  endfacet
  facet normal 0.587785 -1.79638e-16 -0.809017
    outer loop
      vertex 26.1635 -14.65 -1.13154
      vertex 25.4135 -13.85 -1.67645
      vertex 26.1635 -13.85 -1.13154
    endloop
  endfacet
  facet normal 0 -2.22045e-16 -1
    outer loop
      vertex 24.4865 -14.65 -1.67645
      vertex 24.4865 -13.85 -1.67645
      vertex 25.4135 -14.65 -1.67645
    endloop
  endfacet
  facet normal 0 -2.22045e-16 -1
    outer loop
      vertex 25.4135 -14.65 -1.67645
      vertex 24.4865 -13.85 -1.67645
      vertex 25.4135 -13.85 -1.67645
    endloop
  endfacet
  facet normal -0.587785 -1.79638e-16 -0.809017
    outer loop
      vertex 23.7365 -14.65 -1.13154
      vertex 23.7365 -13.85 -1.13154
      vertex 24.4865 -14.65 -1.67645
    endloop
  endfacet
  facet normal -0.587785 -1.79638e-16 -0.809017
    outer loop
      vertex 24.4865 -14.65 -1.67645
      vertex 23.7365 -13.85 -1.13154
      vertex 24.4865 -13.85 -1.67645
    endloop
  endfacet
  facet normal 0 1 -2.22045e-16
    outer loop
      vertex 23.45 -13.85 -0.249864
      vertex 23.7365 -13.85 0.631814
      vertex 23.7365 -13.85 -1.13154
    endloop
  endfacet
  facet normal 0 1 -2.22045e-16
    outer loop
      vertex 23.7365 -13.85 -1.13154
      vertex 23.7365 -13.85 0.631814
      vertex 24.4865 -13.85 1.17672
    endloop
  endfacet
  facet normal 0 1 -2.22045e-16
    outer loop
      vertex 23.7365 -13.85 -1.13154
      vertex 24.4865 -13.85 1.17672
      vertex 25.4135 -13.85 1.17672
    endloop
  endfacet
  facet normal 0 1 -2.22045e-16
    outer loop
      vertex 23.7365 -13.85 -1.13154
      vertex 25.4135 -13.85 1.17672
      vertex 26.1635 -13.85 0.631814
    endloop
  endfacet
  facet normal 0 1 -2.22045e-16
    outer loop
      vertex 23.7365 -13.85 -1.13154
      vertex 26.1635 -13.85 0.631814
      vertex 26.45 -13.85 -0.249864
    endloop
  endfacet
  facet normal 0 1 -2.22045e-16
    outer loop
      vertex 23.7365 -13.85 -1.13154
      vertex 26.45 -13.85 -0.249864
      vertex 26.1635 -13.85 -1.13154
    endloop
  endfacet
  facet normal 0 1 -2.22045e-16
    outer loop
      vertex 23.7365 -13.85 -1.13154
      vertex 26.1635 -13.85 -1.13154
      vertex 25.4135 -13.85 -1.67645
    endloop
  endfacet
  facet normal 0 1 -2.22045e-16
    outer loop
      vertex 23.7365 -13.85 -1.13154
      vertex 25.4135 -13.85 -1.67645
      vertex 24.4865 -13.85 -1.67645
    endloop
  endfacet
endsolid OpenSCAD_Model
